#!OML:ASF \\sashay\E\Suitcase\Project 1\Capture day 1\Session 1\Male1.ASF
:FULLY-SPECIFIED
:DEGREES
610
root 0.911692 17.2366 3.81453 6.25609 11.2925 6.69766
lowerback 4.48245 -2.9739 -7.09107
upperback 1.35337 -4.26432 0.265613
thorax -0.57103 -2.14511 4.4315
lowerneck -11.6013 -2.84042 0.328931
upperneck 9.83648 -2.68574 -9.95435
head 4.71919 -1.9539 -3.34849
rclavicle 8.12035e-014 -2.98177e-014
rhumerus -72.6592 -37.1469 -25.5981
rradius 12.4197
rwrist 18.5475
rhand -11.5892 12.3132
rfingers 7.12502
rthumb 14.4528 -17.1635
lclavicle 8.12035e-014 -2.98177e-014
lhumerus -36.0525 -3.92866 84.8698
lradius 45.7923
lwrist -1.93857
lhand -3.75389 42.6928
lfingers 7.12502
lthumb 21.9903 71.4628
rfemur -30.3105 0.472782 10.0439
rtibia 19.4699
rfoot -12.4404 -14.5849
rtoes 6.61833
lfemur 9.84348 -2.88518 -28.9739
ltibia 13.6598
lfoot -11.4545 -17.4322
ltoes 8.27032
611
root 0.910069 17.2203 3.95424 6.53488 11.4015 6.60064
lowerback 4.12143 -3.15284 -6.82307
upperback 1.32906 -4.46439 0.272455
thorax -0.389465 -2.25059 4.27184
lowerneck -11.5253 -2.66055 0.702112
upperneck 9.84166 -2.48568 -10.1373
head 4.71072 -1.85206 -3.45147
rclavicle -6.09275e-014 -2.78299e-015
rhumerus -73.53 -37.2371 -24.1953
rradius 12.3463
rwrist 20.214
rhand -12.2237 12.2222
rfingers 7.12502
rthumb 13.8414 -17.2973
lclavicle -6.09275e-014 -2.78299e-015
lhumerus -36.3621 -3.78307 84.715
lradius 45.034
lwrist -2.39928
lhand -3.24297 43.1346
lfingers 7.12502
lthumb 22.4808 71.8461
rfemur -29.8703 0.349849 10.2777
rtibia 19.5514
rfoot -12.536 -13.3465
rtoes 5.73515
lfemur 9.7593 -2.89354 -28.7758
ltibia 14.0713
lfoot -11.501 -17.6257
ltoes 7.53165
612
root 0.883224 17.2187 4.09625 6.67438 11.4333 6.09084
lowerback 3.59272 -3.24102 -6.40237
upperback 1.43778 -4.52272 0.53774
thorax 0.0140318 -2.29659 4.27295
lowerneck -11.383 -2.63194 0.682285
upperneck 9.52993 -2.4617 -10.2343
head 4.59195 -1.83475 -3.46717
rclavicle 1.97791e-014 -1.47101e-014
rhumerus -72.9412 -36.5985 -25.1543
rradius 12.5719
rwrist 19.2749
rhand -11.9568 12.4229
rfingers 7.12502
rthumb 14.0986 -17.0789
lclavicle 1.97791e-014 -1.47101e-014
lhumerus -36.5285 -3.41063 84.6833
lradius 44.3215
lwrist -3.11027
lhand -2.86394 42.7069
lfingers 7.12502
lthumb 22.8445 71.3739
rfemur -29.4175 1.13531 10.8817
rtibia 19.531
rfoot -12.1821 -13.0484
rtoes 5.30712
lfemur 9.80245 -2.85493 -27.9685
ltibia 14.2648
lfoot -11.3114 -17.9997
ltoes 5.48019
613
root 0.875092 17.2122 4.2507 6.86336 11.5472 6.26443
lowerback 3.37102 -3.23958 -6.43511
upperback 1.27285 -4.51207 0.595145
thorax -0.0267344 -2.28649 4.3421
lowerneck -11.1641 -2.6418 0.286981
upperneck 9.75138 -2.44305 -9.83667
head 4.63492 -1.8163 -3.27669
rclavicle -3.50855e-014 7.55382e-015
rhumerus -74.1296 -36.4049 -23.3526
rradius 12.5182
rwrist 20.3457
rhand -12.3907 12.6706
rfingers 7.12502
rthumb 13.6805 -16.8598
lclavicle -3.50855e-014 7.55382e-015
lhumerus -37.2348 -3.54685 85.022
lradius 43.6438
lwrist -3.73717
lhand -2.48949 43.2267
lfingers 7.12502
lthumb 23.2038 71.8489
rfemur -28.7101 0.821544 11.0325
rtibia 19.1761
rfoot -11.305 -12.5069
rtoes 2.88593
lfemur 10.0314 -3.27971 -28.066
ltibia 14.5096
lfoot -10.6659 -18.0338
ltoes 6.74541
614
root 0.861319 17.2255 4.39456 7.18324 11.5999 6.13063
lowerback 3.35176 -3.36224 -6.21878
upperback 0.97129 -4.67696 0.674948
thorax -0.318775 -2.35155 4.31794
lowerneck -11.0363 -2.56941 0.375865
upperneck 9.85522 -2.36209 -9.77705
head 4.64872 -1.7697 -3.26649
rclavicle -4.07509e-015 -2.94201e-014
rhumerus -74.0526 -35.513 -23.6405
rradius 12.4422
rwrist 20.3336
rhand -12.1588 12.5383
rfingers 7.12502
rthumb 13.904 -16.9769
lclavicle -4.07509e-015 -2.94201e-014
lhumerus -37.9314 -3.40516 84.9889
lradius 42.8971
lwrist -4.04793
lhand -1.81365 43.8692
lfingers 7.12502
lthumb 23.8521 72.4082
rfemur -28.5165 1.41697 11.0971
rtibia 18.7483
rfoot -10.5085 -12.9888
rtoes 3.87094
lfemur 10.0833 -3.47739 -27.7443
ltibia 14.5062
lfoot -10.0909 -18.2351
ltoes 5.79186
615
root 0.847911 17.2479 4.53434 7.35153 11.4012 5.3988
lowerback 2.66716 -3.37672 -5.42349
upperback 1.17058 -4.625 0.894171
thorax 0.217647 -2.34534 4.04531
lowerneck -11.4158 -2.49909 0.639891
upperneck 9.41344 -2.33703 -9.77065
head 4.57405 -1.74392 -3.30507
rclavicle 1.39149e-014 7.95139e-016
rhumerus -73.9531 -35.4437 -23.7664
rradius 12.625
rwrist 20.3283
rhand -12.3634 12.1917
rfingers 7.12502
rthumb 13.7068 -17.3369
lclavicle 1.39149e-014 7.95139e-016
lhumerus -37.7606 -3.3529 84.9759
lradius 41.9809
lwrist -4.39408
lhand -2.05153 43.1846
lfingers 7.12502
lthumb 23.624 71.7533
rfemur -28.5188 2.73535 11.6119
rtibia 18.3032
rfoot -9.6533 -14.1606
rtoes 3.90349
lfemur 10.2202 -3.88848 -26.9371
ltibia 14.2983
lfoot -9.21548 -17.9091
ltoes 3.61917
616
root 0.842245 17.2654 4.66672 7.64852 11.3449 5.33304
lowerback 2.62083 -3.4266 -5.23774
upperback 0.939874 -4.68979 1.0428
thorax 0.0100177 -2.36685 4.10213
lowerneck -11.7225 -2.75581 0.227423
upperneck 9.78377 -2.62148 -9.40695
head 4.73456 -1.89314 -3.15777
rclavicle 2.5345e-014 3.97569e-015
rhumerus -73.6529 -34.8525 -23.8561
rradius 12.3934
rwrist 20.3982
rhand -12.883 12.4075
rfingers 7.12502
rthumb 13.206 -17.1542
lclavicle 2.5345e-014 3.97569e-015
lhumerus -38.2035 -2.92989 85.1336
lradius 40.9147
lwrist -4.91494
lhand -2.31816 43.0469
lfingers 7.12502
lthumb 23.3682 71.6484
rfemur -28.32 2.7548 11.7537
rtibia 17.6779
rfoot -9.19919 -14.8685
rtoes 2.19388
lfemur 10.1491 -4.02933 -26.7733
ltibia 14.5
lfoot -8.61451 -18.0912
ltoes 2.96619
617
root 0.835643 17.2793 4.81499 7.66634 11.0371 4.81866
lowerback 2.8515 -3.39971 -4.4799
upperback 0.568351 -4.65183 1.13868
thorax -0.559166 -2.3239 3.81111
lowerneck -11.4373 -2.66235 0.364955
upperneck 9.96443 -2.50785 -9.44506
head 4.74532 -1.83342 -3.18165
rclavicle 1.12313e-014 -7.55382e-015
rhumerus -73.7704 -33.7664 -24.2277
rradius 12.6482
rwrist 20.0189
rhand -12.7358 11.9492
rfingers 7.12502
rthumb 13.3479 -17.6032
lclavicle 1.12313e-014 -7.55382e-015
lhumerus -39.4388 -2.40824 84.9709
lradius 40.6933
lwrist -5.79201
lhand -1.22024 44.0773
lfingers 7.12502
lthumb 24.4211 72.5408
rfemur -28.0238 3.4097 12.2131
rtibia 17.1653
rfoot -7.82919 -15.5884
rtoes 2.42559
lfemur 10.2531 -4.38146 -26.2573
ltibia 14.8868
lfoot -7.64722 -17.8454
ltoes 2.9048
618
root 0.838265 17.2864 4.94422 7.76244 10.704 4.00577
lowerback 2.4613 -3.41519 -3.48642
upperback 0.677356 -4.62717 1.39025
thorax -0.289577 -2.32015 3.48526
lowerneck -11.6598 -2.56081 0.420722
upperneck 9.413 -2.43991 -9.24367
head 4.61781 -1.77546 -3.11678
rclavicle -4.25399e-014 8.74653e-015
rhumerus -75.4314 -34.8852 -20.5259
rradius 12.1855
rwrist 24.0022
rhand -12.6116 12.8098
rfingers 7.12502
rthumb 13.4676 -16.7347
lclavicle -4.25399e-014 8.74653e-015
lhumerus -39.3709 -2.05593 84.919
lradius 39.5878
lwrist -5.93936
lhand -1.04147 44.1395
lfingers 7.12502
lthumb 24.5925 72.5798
rfemur -27.8222 2.55856 13.6486
rtibia 16.9618
rfoot -6.21353 -15.1229
rtoes 5.45772
lfemur 10.069 -4.53371 -25.4689
ltibia 15.4262
lfoot -6.20315 -18.1206
ltoes 4.86815
619
root 0.835255 17.2991 5.09183 7.75008 10.201 3.8683
lowerback 2.3583 -3.31026 -3.19361
upperback 0.628745 -4.47743 1.40858
thorax -0.31598 -2.24363 3.33435
lowerneck -11.2054 -2.52039 0.479098
upperneck 9.38729 -2.375 -9.53574
head 4.53343 -1.74879 -3.20303
rclavicle -1.80894e-014 -3.18055e-015
rhumerus -74.4099 -33.8361 -22.5086
rradius 12.4609
rwrist 22.6327
rhand -13.3245 11.7865
rfingers 7.12502
rthumb 12.7804 -17.8024
lclavicle -1.80894e-014 -3.18055e-015
lhumerus -39.7921 -1.52635 84.773
lradius 38.6367
lwrist -6.62211
lhand -0.838621 43.4092
lfingers 7.12502
lthumb 24.7869 71.823
rfemur -27.4817 1.65798 14.3592
rtibia 16.9517
rfoot -5.06752 -14.6584
rtoes 8.24601
lfemur 10.0559 -4.4525 -25.3186
ltibia 16.0744
lfoot -5.29018 -18.3023
ltoes 5.63525
620
root 0.827099 17.3114 5.22503 7.85567 9.5177 3.41712
lowerback 2.30413 -3.11472 -2.80302
upperback 0.559853 -4.205 1.65948
thorax -0.387855 -2.10531 3.36992
lowerneck -11.234 -2.62088 0.311556
upperneck 9.45615 -2.47468 -9.56641
head 4.55656 -1.80846 -3.19394
rclavicle 2.10712e-014 -1.19271e-014
rhumerus -73.5911 -33.1396 -23.5472
rradius 12.3835
rwrist 21.9941
rhand -13.3597 11.1937
rfingers 7.12502
rthumb 12.7465 -18.3972
lclavicle 2.10712e-014 -1.19271e-014
lhumerus -40.0367 -1.08324 84.9578
lradius 37.6973
lwrist -6.84066
lhand -1.50623 43.7408
lfingers 7.12502
lthumb 24.1469 72.241
rfemur -27.4409 1.46706 15.2682
rtibia 17.1708
rfoot -4.56727 -14.0668
rtoes 7.63151
lfemur 9.79178 -4.38747 -24.942
ltibia 16.8152
lfoot -5.01555 -18.2932
ltoes 2.85463
